<?xml version="1.0" encoding="utf-8"?>
<!-- Generator: Adobe Illustrator 16.0.0, SVG Export Plug-In . SVG Version: 6.00 Build 0)  -->
<!DOCTYPE svg PUBLIC "-//W3C//DTD SVG 1.1//EN" "http://www.w3.org/Graphics/SVG/1.1/DTD/svg11.dtd">
<svg version="1.1" id="Layer_1" xmlns="http://www.w3.org/2000/svg" xmlns:xlink="http://www.w3.org/1999/xlink" x="0px" y="0px"
	 width="100px" height="100px" viewBox="0 0 100 100" enable-background="new 0 0 100 100" xml:space="preserve">
<g>
	<defs>
		<circle id="SVGID_1_" cx="50.33" cy="49.982" r="48.306"/>
	</defs>
	<clipPath id="SVGID_2_">
		<use xlink:href="#SVGID_1_"  overflow="visible"/>
	</clipPath>
	<g clip-path="url(#SVGID_2_)">
		<g>
			<linearGradient id="SVGID_3_" gradientUnits="userSpaceOnUse" x1="26.793" y1="48.0381" x2="88.9968" y2="93.0314">
				<stop  offset="0" style="stop-color:#5D6771"/>
				<stop  offset="1" style="stop-color:#5D6771;stop-opacity:0"/>
			</linearGradient>
			<path opacity="0.7" fill="url(#SVGID_3_)" d="M111.074,80.813L76.067,15.901l-43.466,87.292l10.123,24.147
				c1.172,0.061,2.351,0.089,3.538,0.089C76.41,127.43,101.998,107.907,111.074,80.813z"/>
		</g>
		<g>
			<path fill="#445464" d="M72.626,117.445V60.837c0-0.098,0.006-0.198,0.014-0.296l1.326-41.306
				c0.157-1.964-1.236-3.654-3.014-3.654H34.555c-1.776,0-3.172,1.69-3.016,3.654l1.327,41.306c0.009,0.098,0.014,0.198,0.014,0.296
				v56.608H72.626z"/>
			<path fill="#7E868D" d="M70.561,20.15H34.947c-0.988,0-1.777,0.824-1.735,1.81l1.628,38.286c0.039,0.93,0.803,1.661,1.733,1.661
				h32.361c0.927,0,1.693-0.731,1.733-1.661l1.627-38.286C72.335,20.974,71.547,20.15,70.561,20.15z"/>
			<path opacity="0.6" fill="#414142" d="M57.673,29.262h-18.67c-0.931,0-1.687,0.755-1.687,1.686v18.438
				c0,0.932,0.756,1.687,1.687,1.687h18.67c0.93,0,1.688-0.755,1.688-1.687V30.948C59.36,30.017,58.603,29.262,57.673,29.262z"/>
			<path fill="#0B3B5D" d="M57.673,28.32h-18.67c-0.931,0-1.687,0.755-1.687,1.686v18.439c0,0.931,0.756,1.687,1.687,1.687h18.67
				c0.93,0,1.688-0.756,1.688-1.687V30.005C59.36,29.075,58.603,28.32,57.673,28.32z"/>
			<path opacity="0.08" fill="#FFFFFF" d="M39.003,28.32c-0.931,0-1.687,0.755-1.687,1.686v18.439c0,0.931,0.756,1.687,1.687,1.687
				h2.918L54.515,28.32H39.003z"/>
			<rect x="37.316" y="29.552" fill="#A2D5EF" width="22.044" height="1.416"/>
			<g>
				<g>
					<path fill="#393B36" d="M60.744,28.021H35.931c-0.293,0-0.532,0.237-0.532,0.531v0.856c0,0.292,0.238,0.531,0.532,0.531h24.813
						c0.294,0,0.532-0.238,0.532-0.531v-0.856C61.276,28.258,61.038,28.021,60.744,28.021z"/>
				</g>
			</g>
			<path fill="#393B36" d="M75.132,15.427H30.373c-0.569,0-1.031,0.462-1.031,1.03v4.29c0,0.571,0.462,1.033,1.031,1.033h44.759
				c0.572,0,1.033-0.462,1.033-1.033v-4.29C76.165,15.889,75.704,15.427,75.132,15.427z"/>
			<polygon opacity="0.6" fill="#414142" points="31.622,21.779 31.622,21.779 31.659,22.959 73.846,22.959 73.886,21.779 			"/>
			<g>
				<path fill="#393B36" d="M57.555,52.808H42.75c-0.401,0-0.673,0.539-0.521,1.027l1.53,4.9c0.086,0.278,0.292,0.46,0.52,0.46
					h11.748c0.228,0,0.432-0.182,0.519-0.46l1.528-4.9C58.228,53.347,57.956,52.808,57.555,52.808z"/>
				<g>
					<path fill="#D2D4D4" d="M52.198,54.45h2.266c0.128,0,0.229-0.058,0.229-0.132v-0.565c0-0.072-0.102-0.129-0.229-0.129h-2.266
						c-0.129,0-0.231,0.057-0.231,0.129v0.565C51.967,54.393,52.069,54.45,52.198,54.45z"/>
					<path fill="#D2D4D4" d="M49.991,54.45h1.278c0.072,0,0.129-0.058,0.129-0.132v-0.565c0-0.072-0.057-0.129-0.129-0.129h-1.278
						c-0.07,0-0.13,0.057-0.13,0.129v0.565C49.861,54.393,49.921,54.45,49.991,54.45z"/>
					<path fill="#D2D4D4" d="M48.137,54.45h1.278c0.073,0,0.129-0.058,0.129-0.132v-0.565c0-0.072-0.057-0.129-0.129-0.129h-1.278
						c-0.07,0-0.129,0.057-0.129,0.129v0.565C48.007,54.393,48.066,54.45,48.137,54.45z"/>
					<path fill="#D2D4D4" d="M46.283,54.45h1.277c0.07,0,0.13-0.058,0.13-0.132v-0.565c0-0.072-0.06-0.129-0.13-0.129h-1.277
						c-0.071,0-0.13,0.057-0.13,0.129v0.565C46.153,54.393,46.211,54.45,46.283,54.45z"/>
					<rect x="51.967" y="54.45" opacity="0.5" fill="#583B78" width="2.727" height="0.134"/>
					<rect x="49.861" y="54.45" opacity="0.5" fill="#583B78" width="1.538" height="0.134"/>
					<rect x="48.007" y="54.45" opacity="0.5" fill="#583B78" width="1.537" height="0.134"/>
					<rect x="46.153" y="54.45" opacity="0.5" fill="#583B78" width="1.537" height="0.134"/>
				</g>
				<g>
					<path fill="#D2D4D4" d="M52.198,55.706h2.266c0.128,0,0.229-0.058,0.229-0.132v-0.565c0-0.072-0.102-0.128-0.229-0.128h-2.266
						c-0.129,0-0.231,0.056-0.231,0.128v0.565C51.967,55.648,52.069,55.706,52.198,55.706z"/>
					<path fill="#D2D4D4" d="M49.991,55.706h1.278c0.072,0,0.129-0.058,0.129-0.132v-0.565c0-0.072-0.057-0.128-0.129-0.128h-1.278
						c-0.07,0-0.13,0.056-0.13,0.128v0.565C49.861,55.648,49.921,55.706,49.991,55.706z"/>
					<path fill="#D2D4D4" d="M48.137,55.706h1.278c0.073,0,0.129-0.058,0.129-0.132v-0.565c0-0.072-0.057-0.128-0.129-0.128h-1.278
						c-0.07,0-0.129,0.056-0.129,0.128v0.565C48.007,55.648,48.066,55.706,48.137,55.706z"/>
					<path fill="#D2D4D4" d="M46.283,55.706h1.277c0.07,0,0.13-0.058,0.13-0.132v-0.565c0-0.072-0.06-0.128-0.13-0.128h-1.277
						c-0.071,0-0.13,0.056-0.13,0.128v0.565C46.153,55.648,46.211,55.706,46.283,55.706z"/>
					<rect x="51.967" y="55.706" opacity="0.5" fill="#583B78" width="2.727" height="0.131"/>
					<rect x="49.861" y="55.706" opacity="0.5" fill="#583B78" width="1.538" height="0.131"/>
					<rect x="48.007" y="55.706" opacity="0.5" fill="#583B78" width="1.537" height="0.131"/>
					<rect x="46.153" y="55.706" opacity="0.5" fill="#583B78" width="1.537" height="0.131"/>
				</g>
				<g>
					<path fill="#D2D4D4" d="M52.198,56.962h2.266c0.128,0,0.229-0.061,0.229-0.13v-0.567c0-0.071-0.102-0.128-0.229-0.128h-2.266
						c-0.129,0-0.231,0.057-0.231,0.128v0.567C51.967,56.901,52.069,56.962,52.198,56.962z"/>
					<path fill="#D2D4D4" d="M49.991,56.962h1.278c0.072,0,0.129-0.061,0.129-0.13v-0.567c0-0.071-0.057-0.128-0.129-0.128h-1.278
						c-0.07,0-0.13,0.057-0.13,0.128v0.567C49.861,56.901,49.921,56.962,49.991,56.962z"/>
					<path fill="#D2D4D4" d="M48.137,56.962h1.278c0.073,0,0.129-0.061,0.129-0.13v-0.567c0-0.071-0.057-0.128-0.129-0.128h-1.278
						c-0.07,0-0.129,0.057-0.129,0.128v0.567C48.007,56.901,48.066,56.962,48.137,56.962z"/>
					<path fill="#D2D4D4" d="M46.283,56.962h1.277c0.07,0,0.13-0.061,0.13-0.13v-0.567c0-0.071-0.06-0.128-0.13-0.128h-1.277
						c-0.071,0-0.13,0.057-0.13,0.128v0.567C46.153,56.901,46.211,56.962,46.283,56.962z"/>
					<rect x="51.967" y="56.962" opacity="0.5" fill="#583B78" width="2.727" height="0.132"/>
					<rect x="49.861" y="56.962" opacity="0.5" fill="#583B78" width="1.538" height="0.132"/>
					<rect x="48.007" y="56.962" opacity="0.5" fill="#583B78" width="1.537" height="0.132"/>
					<rect x="46.153" y="56.962" opacity="0.5" fill="#583B78" width="1.537" height="0.132"/>
				</g>
				<g>
					<path fill="#68C189" d="M52.198,58.218h2.266c0.128,0,0.229-0.061,0.229-0.13v-0.565c0-0.073-0.102-0.131-0.229-0.131h-2.266
						c-0.129,0-0.231,0.058-0.231,0.131v0.565C51.967,58.157,52.069,58.218,52.198,58.218z"/>
					<path fill="#D2D4D4" d="M49.991,58.218h1.278c0.072,0,0.129-0.061,0.129-0.13v-0.565c0-0.073-0.057-0.131-0.129-0.131h-1.278
						c-0.07,0-0.13,0.058-0.13,0.131v0.565C49.861,58.157,49.921,58.218,49.991,58.218z"/>
					<path fill="#D2D4D4" d="M48.137,58.218h1.278c0.073,0,0.129-0.061,0.129-0.13v-0.565c0-0.073-0.057-0.131-0.129-0.131h-1.278
						c-0.07,0-0.129,0.058-0.129,0.131v0.565C48.007,58.157,48.066,58.218,48.137,58.218z"/>
					<path fill="#D2D4D4" d="M46.283,58.218h1.277c0.07,0,0.13-0.061,0.13-0.13v-0.565c0-0.073-0.06-0.131-0.13-0.131h-1.277
						c-0.071,0-0.13,0.058-0.13,0.131v0.565C46.153,58.157,46.211,58.218,46.283,58.218z"/>
					<rect x="51.967" y="58.218" opacity="0.5" fill="#583B78" width="2.727" height="0.131"/>
					<rect x="49.861" y="58.218" opacity="0.5" fill="#583B78" width="1.538" height="0.131"/>
					<rect x="48.007" y="58.218" opacity="0.5" fill="#583B78" width="1.537" height="0.131"/>
					<rect x="46.153" y="58.218" opacity="0.5" fill="#583B78" width="1.537" height="0.131"/>
				</g>
			</g>
			<path fill="#7E868D" d="M63.286,117.445V64.82c0-0.771-0.387-1.396-0.862-1.396H42.631c-0.474,0-0.858,0.625-0.858,1.396v52.625
				H63.286z"/>
			<rect x="62.065" y="37.693" fill="#393B36" width="9.033" height="1.531"/>
			<rect x="62.065" y="38.321" fill="#7CC24D" width="9.033" height="0.275"/>
			<rect x="62.065" y="39.224" opacity="0.6" fill="#414142" width="9.033" height="0.238"/>
			<text transform="matrix(1 0 0 1 47.6904 20.4536)" fill="#FFFFFF" font-family="'LeagueSpartan-Bold'" font-size="4.5085">ATM</text>
			<g>
				<g>
					<path fill="#393B36" d="M68.899,52.893h-3.406c-0.09,0-0.164,0.073-0.164,0.163v0.87c0,0.09,0.074,0.161,0.164,0.161h3.406
						c0.09,0,0.163-0.071,0.163-0.161v-0.87C69.062,52.966,68.989,52.893,68.899,52.893z"/>
				</g>
			</g>
			<g>
				<g>
					<path fill="#393B36" d="M68.899,55.271h-3.406c-0.09,0-0.164,0.074-0.164,0.162v0.871c0,0.09,0.074,0.164,0.164,0.164h3.406
						c0.09,0,0.163-0.074,0.163-0.164v-0.871C69.062,55.345,68.989,55.271,68.899,55.271z"/>
				</g>
			</g>
			<g>
				<g>
					<path fill="#393B36" d="M68.899,57.87h-3.406c-0.09,0-0.164,0.074-0.164,0.164v0.868c0,0.09,0.074,0.163,0.164,0.163h3.406
						c0.09,0,0.163-0.073,0.163-0.163v-0.868C69.062,57.944,68.989,57.87,68.899,57.87z"/>
				</g>
			</g>
			<g>
				<g>
					<path fill="#393B36" d="M40.124,52.768h-3.407c-0.09,0-0.162,0.072-0.162,0.164V53.8c0,0.091,0.072,0.161,0.162,0.161h3.407
						c0.09,0,0.162-0.07,0.162-0.161v-0.868C40.286,52.84,40.214,52.768,40.124,52.768z"/>
				</g>
			</g>
			<g>
				<g>
					<path fill="#393B36" d="M40.124,55.146h-3.407c-0.09,0-0.162,0.072-0.162,0.164v0.867c0,0.09,0.072,0.164,0.162,0.164h3.407
						c0.09,0,0.162-0.074,0.162-0.164v-0.867C40.286,55.219,40.214,55.146,40.124,55.146z"/>
				</g>
			</g>
			<g>
				<g>
					<path fill="#393B36" d="M40.124,57.523h-3.407c-0.09,0-0.162,0.071-0.162,0.163v0.869c0,0.09,0.072,0.162,0.162,0.162h3.407
						c0.09,0,0.162-0.072,0.162-0.162v-0.869C40.286,57.595,40.214,57.523,40.124,57.523z"/>
				</g>
			</g>
			<rect x="44.078" y="68.121" fill="#222222" width="8.658" height="3.133"/>
			<rect x="44.078" y="68.121" fill="#393B36" width="8.658" height="2.319"/>
		</g>
	</g>
	<use xlink:href="#SVGID_1_"  overflow="visible" fill="none" stroke="#F06423" stroke-miterlimit="10"/>
</g>
</svg>
