<?xml version="1.0" encoding="utf-8"?>
<!-- Generator: Adobe Illustrator 16.0.0, SVG Export Plug-In . SVG Version: 6.00 Build 0)  -->
<!DOCTYPE svg PUBLIC "-//W3C//DTD SVG 1.1//EN" "http://www.w3.org/Graphics/SVG/1.1/DTD/svg11.dtd">
<svg version="1.1" id="Layer_1" xmlns="http://www.w3.org/2000/svg" xmlns:xlink="http://www.w3.org/1999/xlink" x="0px" y="0px"
	 width="100px" height="100px" viewBox="0 0 100 100" enable-background="new 0 0 100 100" xml:space="preserve">
<g>
	<circle fill="#FFFFFF" stroke="#F06423" stroke-miterlimit="10" cx="50.176" cy="49.803" r="48.889"/>
	<g>
		<linearGradient id="SVGID_1_" gradientUnits="userSpaceOnUse" x1="36.248" y1="41.8984" x2="80.7462" y2="74.0849">
			<stop  offset="0" style="stop-color:#5D6771"/>
			<stop  offset="1" style="stop-color:#5D6771;stop-opacity:0"/>
		</linearGradient>
		<path opacity="0.7" fill="url(#SVGID_1_)" d="M96.54,65.344L71.497,18.908L35.403,81.354l12.241,17.274
			c0.838,0.043,1.682,0.063,2.531,0.063C71.742,98.691,90.047,84.726,96.54,65.344z"/>
	</g>
	<path fill="#1E252B" d="M67.354,83.784h-26.71c-3.093,0-5.6-2.508-5.6-5.601V21.545c0-3.092,2.507-5.6,5.6-5.6h26.71
		c3.093,0,5.6,2.507,5.6,5.6v56.638C72.954,81.276,70.447,83.784,67.354,83.784z"/>
	<rect x="36.861" y="24.686" fill="#0B3B5D" width="34.275" height="50.358"/>
	<rect x="36.861" y="24.686" fill="#046AA8" width="34.275" height="3.657"/>
	<path fill="#163963" d="M67.035,25.939h2.774c0.146,0,0.265-0.119,0.265-0.266s-0.118-0.266-0.265-0.266h-2.774
		c-0.147,0-0.265,0.119-0.265,0.266S66.888,25.939,67.035,25.939z M69.81,26.248h-2.774c-0.147,0-0.265,0.119-0.265,0.266
		s0.117,0.266,0.265,0.266h2.774c0.146,0,0.265-0.119,0.265-0.266S69.956,26.248,69.81,26.248z M69.81,27.089h-2.774
		c-0.147,0-0.265,0.12-0.265,0.266c0,0.147,0.117,0.266,0.265,0.266h2.774c0.146,0,0.265-0.118,0.265-0.266
		C70.074,27.208,69.956,27.089,69.81,27.089z"/>
	<circle fill="none" stroke="#343F49" stroke-width="0.5" stroke-miterlimit="10" cx="53.999" cy="79.214" r="2.499"/>
	
		<line fill="none" stroke="#343F49" stroke-linecap="round" stroke-linejoin="round" stroke-miterlimit="10" x1="51.5" y1="21.153" x2="56.497" y2="21.153"/>
	<g>
		<circle fill="#343F49" cx="54" cy="19.1" r="0.642"/>
		<circle fill="#072C49" cx="54" cy="19.1" r="0.453"/>
		<circle fill="#1E252B" cx="54" cy="19.1" r="0.275"/>
		<circle fill="#343F49" cx="54" cy="19.1" r="0.167"/>
		<circle fill="#1E252B" cx="53.999" cy="19.1" r="0.079"/>
		<path opacity="0.06" fill="#FFFFFF" d="M54,18.457c-0.354,0-0.642,0.288-0.642,0.643c0,0.264,0.159,0.49,0.387,0.588l0.635-1.102
			C54.274,18.506,54.143,18.457,54,18.457z"/>
	</g>
	<circle fill="#343F49" cx="49.908" cy="21.153" r="0.266"/>
	<polygon opacity="0.08" fill="#FFFFFF" points="52.464,24.686 36.861,51.71 36.861,75.044 45.607,75.044 71.137,30.824 
		71.137,24.686 	"/>
	<polygon opacity="0.08" fill="#FFFFFF" points="51.148,75.044 58.352,75.044 71.137,52.898 71.137,40.423 	"/>
	<g>
		<path fill="#FFFFFF" d="M57.694,56.201c-0.435,0.228-1.41,0.54-2.359,0.54c-1.039,0-2.013-0.312-2.676-1.058
			c-0.312-0.354-0.541-0.829-0.687-1.452h5.204v-1.473h-5.494v-0.332c0-0.228,0-0.436,0.02-0.645h5.475v-1.47h-5.163
			c0.149-0.538,0.354-1.016,0.668-1.347c0.641-0.766,1.557-1.12,2.526-1.12c0.912,0,1.784,0.272,2.322,0.499l0.58-2.364
			c-0.748-0.331-1.863-0.621-3.11-0.621c-1.97,0-3.63,0.786-4.786,2.136c-0.663,0.744-1.185,1.701-1.435,2.817h-1.387v1.47h1.161
			c0,0.209-0.022,0.417-0.022,0.626v0.351h-1.138v1.473h1.347c0.19,1.099,0.604,1.993,1.161,2.695
			c1.161,1.533,3.008,2.365,5.058,2.365c1.33,0,2.532-0.396,3.235-0.786L57.694,56.201z M57.694,56.201"/>
	</g>
</g>
</svg>
